<mxfile host="Electron" modified="2024-05-24T18:23:31.095Z" agent="Mozilla/5.0 (Macintosh; Intel Mac OS X 10_15_7) AppleWebKit/537.36 (KHTML, like Gecko) draw.io/24.2.5 Chrome/120.0.6099.109 Electron/28.1.0 Safari/537.36" etag="KxQeXQL8-varYnABjHsT" version="24.2.5" type="device">
  <diagram name="Страница — 1" id="ZJRS7etRq-ryZXF24tIY">
    <mxGraphModel dx="1064" dy="779" grid="1" gridSize="10" guides="1" tooltips="1" connect="1" arrows="1" fold="1" page="1" pageScale="1" pageWidth="827" pageHeight="1169" math="0" shadow="0">
      <root>
        <mxCell id="0" />
        <mxCell id="1" parent="0" />
        <mxCell id="e7EH0LffgvZk6olbJ7vA-1" value="" style="ellipse;html=1;shape=startState;fillColor=#000000;strokeColor=#ff0000;" vertex="1" parent="1">
          <mxGeometry x="370" y="90" width="30" height="30" as="geometry" />
        </mxCell>
        <mxCell id="e7EH0LffgvZk6olbJ7vA-2" value="" style="edgeStyle=orthogonalEdgeStyle;html=1;verticalAlign=bottom;endArrow=open;endSize=8;strokeColor=#ff0000;rounded=0;" edge="1" source="e7EH0LffgvZk6olbJ7vA-1" parent="1" target="e7EH0LffgvZk6olbJ7vA-4">
          <mxGeometry relative="1" as="geometry">
            <mxPoint x="385" y="250" as="targetPoint" />
          </mxGeometry>
        </mxCell>
        <mxCell id="e7EH0LffgvZk6olbJ7vA-44" value="Создание заказа" style="edgeLabel;html=1;align=center;verticalAlign=middle;resizable=0;points=[];" vertex="1" connectable="0" parent="e7EH0LffgvZk6olbJ7vA-2">
          <mxGeometry x="-0.3196" y="-2" relative="1" as="geometry">
            <mxPoint x="-53" as="offset" />
          </mxGeometry>
        </mxCell>
        <mxCell id="e7EH0LffgvZk6olbJ7vA-3" value="" style="ellipse;html=1;shape=endState;fillColor=#000000;strokeColor=#ff0000;" vertex="1" parent="1">
          <mxGeometry x="400" y="810" width="30" height="30" as="geometry" />
        </mxCell>
        <mxCell id="e7EH0LffgvZk6olbJ7vA-4" value="Создан" style="swimlane;fontStyle=1;align=center;verticalAlign=middle;childLayout=stackLayout;horizontal=1;startSize=30;horizontalStack=0;resizeParent=0;resizeLast=1;container=0;fontColor=#000000;collapsible=0;rounded=1;arcSize=30;strokeColor=#ff0000;fillColor=#ffffc0;swimlaneFillColor=#ffffc0;dropTarget=0;" vertex="1" parent="1">
          <mxGeometry x="305" y="160" width="160" height="60" as="geometry" />
        </mxCell>
        <mxCell id="e7EH0LffgvZk6olbJ7vA-5" value="&lt;div&gt;entry: создать заказ&lt;/div&gt;" style="text;html=1;strokeColor=none;fillColor=none;align=center;verticalAlign=middle;spacingLeft=4;spacingRight=4;whiteSpace=wrap;overflow=hidden;rotatable=0;fontColor=#000000;" vertex="1" parent="e7EH0LffgvZk6olbJ7vA-4">
          <mxGeometry y="30" width="160" height="30" as="geometry" />
        </mxCell>
        <mxCell id="e7EH0LffgvZk6olbJ7vA-6" value="Редактирование заказа" style="edgeStyle=orthogonalEdgeStyle;html=1;verticalAlign=bottom;endArrow=open;endSize=8;strokeColor=#ff0000;rounded=0;entryX=0.5;entryY=0;entryDx=0;entryDy=0;" edge="1" source="e7EH0LffgvZk6olbJ7vA-4" parent="1" target="e7EH0LffgvZk6olbJ7vA-9">
          <mxGeometry x="0.3333" y="-75" relative="1" as="geometry">
            <mxPoint x="385" y="280" as="targetPoint" />
            <mxPoint as="offset" />
          </mxGeometry>
        </mxCell>
        <mxCell id="e7EH0LffgvZk6olbJ7vA-9" value="Отредактирован" style="swimlane;fontStyle=1;align=center;verticalAlign=middle;childLayout=stackLayout;horizontal=1;startSize=30;horizontalStack=0;resizeParent=0;resizeLast=1;container=0;fontColor=#000000;collapsible=0;rounded=1;arcSize=30;strokeColor=#ff0000;fillColor=#ffffc0;swimlaneFillColor=#ffffc0;dropTarget=0;" vertex="1" parent="1">
          <mxGeometry x="305" y="280" width="160" height="60" as="geometry" />
        </mxCell>
        <mxCell id="e7EH0LffgvZk6olbJ7vA-10" value="&lt;div&gt;entry: сохранить изменения&lt;/div&gt;" style="text;html=1;strokeColor=none;fillColor=none;align=center;verticalAlign=middle;spacingLeft=4;spacingRight=4;whiteSpace=wrap;overflow=hidden;rotatable=0;fontColor=#000000;" vertex="1" parent="e7EH0LffgvZk6olbJ7vA-9">
          <mxGeometry y="30" width="160" height="30" as="geometry" />
        </mxCell>
        <mxCell id="e7EH0LffgvZk6olbJ7vA-11" value="" style="edgeStyle=orthogonalEdgeStyle;html=1;verticalAlign=bottom;endArrow=open;endSize=8;strokeColor=#ff0000;rounded=0;entryX=0.5;entryY=0;entryDx=0;entryDy=0;" edge="1" parent="1" target="e7EH0LffgvZk6olbJ7vA-20">
          <mxGeometry relative="1" as="geometry">
            <mxPoint x="379" y="430" as="targetPoint" />
            <mxPoint x="384" y="340" as="sourcePoint" />
            <Array as="points">
              <mxPoint x="380" y="340" />
            </Array>
          </mxGeometry>
        </mxCell>
        <mxCell id="e7EH0LffgvZk6olbJ7vA-46" value="Оформление заказа" style="edgeLabel;html=1;align=center;verticalAlign=middle;resizable=0;points=[];" vertex="1" connectable="0" parent="e7EH0LffgvZk6olbJ7vA-11">
          <mxGeometry x="-0.2799" y="2" relative="1" as="geometry">
            <mxPoint x="-77" as="offset" />
          </mxGeometry>
        </mxCell>
        <mxCell id="e7EH0LffgvZk6olbJ7vA-12" value="Удален" style="swimlane;fontStyle=1;align=center;verticalAlign=middle;childLayout=stackLayout;horizontal=1;startSize=30;horizontalStack=0;resizeParent=0;resizeLast=1;container=0;fontColor=#000000;collapsible=0;rounded=1;arcSize=30;strokeColor=#ff0000;fillColor=#ffffc0;swimlaneFillColor=#ffffc0;dropTarget=0;" vertex="1" parent="1">
          <mxGeometry x="560" y="280" width="160" height="60" as="geometry" />
        </mxCell>
        <mxCell id="e7EH0LffgvZk6olbJ7vA-13" value="&lt;div&gt;&lt;span style=&quot;background-color: initial;&quot;&gt;exit: удалить заказ&lt;/span&gt;&lt;br&gt;&lt;/div&gt;" style="text;html=1;strokeColor=none;fillColor=none;align=center;verticalAlign=middle;spacingLeft=4;spacingRight=4;whiteSpace=wrap;overflow=hidden;rotatable=0;fontColor=#000000;" vertex="1" parent="e7EH0LffgvZk6olbJ7vA-12">
          <mxGeometry y="30" width="160" height="30" as="geometry" />
        </mxCell>
        <mxCell id="e7EH0LffgvZk6olbJ7vA-14" value="" style="edgeStyle=orthogonalEdgeStyle;html=1;verticalAlign=bottom;endArrow=open;endSize=8;strokeColor=#ff0000;rounded=0;entryX=0.5;entryY=0;entryDx=0;entryDy=0;" edge="1" source="e7EH0LffgvZk6olbJ7vA-12" parent="1" target="e7EH0LffgvZk6olbJ7vA-3">
          <mxGeometry relative="1" as="geometry">
            <mxPoint x="600" y="400" as="targetPoint" />
            <Array as="points">
              <mxPoint x="640" y="780" />
              <mxPoint x="415" y="780" />
            </Array>
          </mxGeometry>
        </mxCell>
        <mxCell id="e7EH0LffgvZk6olbJ7vA-16" value="" style="edgeStyle=orthogonalEdgeStyle;html=1;verticalAlign=bottom;endArrow=open;endSize=8;strokeColor=#ff0000;rounded=0;entryX=0;entryY=0;entryDx=0;entryDy=0;exitX=1;exitY=0;exitDx=0;exitDy=0;" edge="1" parent="1" source="e7EH0LffgvZk6olbJ7vA-10" target="e7EH0LffgvZk6olbJ7vA-13">
          <mxGeometry relative="1" as="geometry">
            <mxPoint x="610" y="410" as="targetPoint" />
            <mxPoint x="630" y="360" as="sourcePoint" />
            <Array as="points">
              <mxPoint x="530" y="310" />
              <mxPoint x="530" y="310" />
            </Array>
          </mxGeometry>
        </mxCell>
        <mxCell id="e7EH0LffgvZk6olbJ7vA-45" value="Удаление заказа" style="edgeLabel;html=1;align=center;verticalAlign=middle;resizable=0;points=[];" vertex="1" connectable="0" parent="e7EH0LffgvZk6olbJ7vA-16">
          <mxGeometry x="-0.027" y="-1" relative="1" as="geometry">
            <mxPoint y="-21" as="offset" />
          </mxGeometry>
        </mxCell>
        <mxCell id="e7EH0LffgvZk6olbJ7vA-20" value="Оформлен" style="swimlane;fontStyle=1;align=center;verticalAlign=middle;childLayout=stackLayout;horizontal=1;startSize=30;horizontalStack=0;resizeParent=0;resizeLast=1;container=0;fontColor=#000000;collapsible=0;rounded=1;arcSize=30;strokeColor=#ff0000;fillColor=#ffffc0;swimlaneFillColor=#ffffc0;dropTarget=0;" vertex="1" parent="1">
          <mxGeometry x="300" y="380" width="160" height="60" as="geometry" />
        </mxCell>
        <mxCell id="e7EH0LffgvZk6olbJ7vA-21" value="&lt;div&gt;&lt;span style=&quot;background-color: initial;&quot;&gt;exit: отправить на оплату&lt;/span&gt;&lt;br&gt;&lt;/div&gt;" style="text;html=1;strokeColor=none;fillColor=none;align=center;verticalAlign=middle;spacingLeft=4;spacingRight=4;whiteSpace=wrap;overflow=hidden;rotatable=0;fontColor=#000000;" vertex="1" parent="e7EH0LffgvZk6olbJ7vA-20">
          <mxGeometry y="30" width="160" height="30" as="geometry" />
        </mxCell>
        <mxCell id="e7EH0LffgvZk6olbJ7vA-31" value="Subtitle" style="text;html=1;strokeColor=none;fillColor=none;align=center;verticalAlign=middle;spacingLeft=4;spacingRight=4;whiteSpace=wrap;overflow=hidden;rotatable=0;fontColor=#000000;" vertex="1" parent="e7EH0LffgvZk6olbJ7vA-20">
          <mxGeometry y="60" width="160" as="geometry" />
        </mxCell>
        <mxCell id="e7EH0LffgvZk6olbJ7vA-22" value="" style="edgeStyle=orthogonalEdgeStyle;html=1;verticalAlign=bottom;endArrow=open;endSize=8;strokeColor=#ff0000;rounded=0;entryX=0.5;entryY=0;entryDx=0;entryDy=0;" edge="1" source="e7EH0LffgvZk6olbJ7vA-20" parent="1" target="e7EH0LffgvZk6olbJ7vA-29">
          <mxGeometry x="0.0043" relative="1" as="geometry">
            <mxPoint x="410" y="520" as="targetPoint" />
            <Array as="points">
              <mxPoint x="380" y="480" />
              <mxPoint x="490" y="480" />
              <mxPoint x="490" y="510" />
            </Array>
            <mxPoint as="offset" />
          </mxGeometry>
        </mxCell>
        <mxCell id="e7EH0LffgvZk6olbJ7vA-23" value="Отменен" style="swimlane;fontStyle=1;align=center;verticalAlign=middle;childLayout=stackLayout;horizontal=1;startSize=30;horizontalStack=0;resizeParent=0;resizeLast=1;container=0;fontColor=#000000;collapsible=0;rounded=1;arcSize=30;strokeColor=#ff0000;fillColor=#ffffc0;swimlaneFillColor=#ffffc0;dropTarget=0;" vertex="1" parent="1">
          <mxGeometry x="410" y="670" width="160" height="60" as="geometry" />
        </mxCell>
        <mxCell id="e7EH0LffgvZk6olbJ7vA-24" value="&lt;div&gt;&lt;span style=&quot;background-color: initial;&quot;&gt;exit: удалить заказ&lt;/span&gt;&lt;br&gt;&lt;/div&gt;" style="text;html=1;strokeColor=none;fillColor=none;align=center;verticalAlign=middle;spacingLeft=4;spacingRight=4;whiteSpace=wrap;overflow=hidden;rotatable=0;fontColor=#000000;" vertex="1" parent="e7EH0LffgvZk6olbJ7vA-23">
          <mxGeometry y="30" width="160" height="30" as="geometry" />
        </mxCell>
        <mxCell id="e7EH0LffgvZk6olbJ7vA-25" value="" style="edgeStyle=orthogonalEdgeStyle;html=1;verticalAlign=bottom;endArrow=open;endSize=8;strokeColor=#ff0000;rounded=0;entryX=0.5;entryY=0;entryDx=0;entryDy=0;exitX=0.5;exitY=1;exitDx=0;exitDy=0;" edge="1" source="e7EH0LffgvZk6olbJ7vA-24" parent="1" target="e7EH0LffgvZk6olbJ7vA-3">
          <mxGeometry relative="1" as="geometry">
            <mxPoint x="470" y="560" as="targetPoint" />
            <Array as="points">
              <mxPoint x="490" y="780" />
              <mxPoint x="415" y="780" />
            </Array>
          </mxGeometry>
        </mxCell>
        <mxCell id="e7EH0LffgvZk6olbJ7vA-26" value="Оплачен" style="swimlane;fontStyle=1;align=center;verticalAlign=middle;childLayout=stackLayout;horizontal=1;startSize=30;horizontalStack=0;resizeParent=0;resizeLast=1;container=0;fontColor=#000000;collapsible=0;rounded=1;arcSize=30;strokeColor=#ff0000;fillColor=#ffffc0;swimlaneFillColor=#ffffc0;dropTarget=0;" vertex="1" parent="1">
          <mxGeometry x="170" y="510" width="160" height="60" as="geometry" />
        </mxCell>
        <mxCell id="e7EH0LffgvZk6olbJ7vA-27" value="&lt;div&gt;entry: принять платеж&lt;/div&gt;" style="text;html=1;strokeColor=none;fillColor=none;align=center;verticalAlign=middle;spacingLeft=4;spacingRight=4;whiteSpace=wrap;overflow=hidden;rotatable=0;fontColor=#000000;" vertex="1" parent="e7EH0LffgvZk6olbJ7vA-26">
          <mxGeometry y="30" width="160" height="30" as="geometry" />
        </mxCell>
        <mxCell id="e7EH0LffgvZk6olbJ7vA-32" value="Subtitle" style="text;html=1;strokeColor=none;fillColor=none;align=center;verticalAlign=middle;spacingLeft=4;spacingRight=4;whiteSpace=wrap;overflow=hidden;rotatable=0;fontColor=#000000;" vertex="1" parent="e7EH0LffgvZk6olbJ7vA-26">
          <mxGeometry y="60" width="160" as="geometry" />
        </mxCell>
        <mxCell id="e7EH0LffgvZk6olbJ7vA-28" value="" style="edgeStyle=orthogonalEdgeStyle;html=1;verticalAlign=bottom;endArrow=open;endSize=8;strokeColor=#ff0000;rounded=0;" edge="1" source="e7EH0LffgvZk6olbJ7vA-26" parent="1" target="e7EH0LffgvZk6olbJ7vA-33">
          <mxGeometry relative="1" as="geometry">
            <mxPoint x="60" y="750" as="targetPoint" />
          </mxGeometry>
        </mxCell>
        <mxCell id="e7EH0LffgvZk6olbJ7vA-50" value="Отправка в работу" style="edgeLabel;html=1;align=center;verticalAlign=middle;resizable=0;points=[];" vertex="1" connectable="0" parent="e7EH0LffgvZk6olbJ7vA-28">
          <mxGeometry x="-0.4717" y="1" relative="1" as="geometry">
            <mxPoint x="-71" y="5" as="offset" />
          </mxGeometry>
        </mxCell>
        <mxCell id="e7EH0LffgvZk6olbJ7vA-29" value="Не оплачен" style="rounded=1;whiteSpace=wrap;html=1;arcSize=40;fontColor=#000000;fillColor=#ffffc0;strokeColor=#ff0000;" vertex="1" parent="1">
          <mxGeometry x="430" y="510" width="120" height="40" as="geometry" />
        </mxCell>
        <mxCell id="e7EH0LffgvZk6olbJ7vA-30" value="" style="edgeStyle=orthogonalEdgeStyle;html=1;verticalAlign=bottom;endArrow=open;endSize=8;strokeColor=#ff0000;rounded=0;entryX=0.5;entryY=0;entryDx=0;entryDy=0;exitX=0.5;exitY=1;exitDx=0;exitDy=0;" edge="1" source="e7EH0LffgvZk6olbJ7vA-29" parent="1" target="e7EH0LffgvZk6olbJ7vA-23">
          <mxGeometry relative="1" as="geometry">
            <mxPoint x="230" y="710" as="targetPoint" />
            <Array as="points">
              <mxPoint x="490" y="610" />
              <mxPoint x="490" y="610" />
            </Array>
          </mxGeometry>
        </mxCell>
        <mxCell id="e7EH0LffgvZk6olbJ7vA-49" value="Отмена заказа" style="edgeLabel;html=1;align=center;verticalAlign=middle;resizable=0;points=[];" vertex="1" connectable="0" parent="e7EH0LffgvZk6olbJ7vA-30">
          <mxGeometry x="-0.6645" y="1" relative="1" as="geometry">
            <mxPoint x="49" y="15" as="offset" />
          </mxGeometry>
        </mxCell>
        <mxCell id="e7EH0LffgvZk6olbJ7vA-33" value="Принят в работу" style="swimlane;fontStyle=1;align=center;verticalAlign=middle;childLayout=stackLayout;horizontal=1;startSize=30;horizontalStack=0;resizeParent=0;resizeLast=1;container=0;fontColor=#000000;collapsible=0;rounded=1;arcSize=30;strokeColor=#ff0000;fillColor=#ffffc0;swimlaneFillColor=#ffffc0;dropTarget=0;" vertex="1" parent="1">
          <mxGeometry x="135" y="600" width="230" height="70" as="geometry" />
        </mxCell>
        <mxCell id="e7EH0LffgvZk6olbJ7vA-34" value="&lt;div&gt;entry: отправить сборщику заказа&lt;/div&gt;&lt;div&gt;exit: отправить службе доставки&lt;/div&gt;" style="text;html=1;strokeColor=none;fillColor=none;align=center;verticalAlign=middle;spacingLeft=4;spacingRight=4;whiteSpace=wrap;overflow=hidden;rotatable=0;fontColor=#000000;" vertex="1" parent="e7EH0LffgvZk6olbJ7vA-33">
          <mxGeometry y="30" width="230" height="40" as="geometry" />
        </mxCell>
        <mxCell id="e7EH0LffgvZk6olbJ7vA-35" value="" style="edgeStyle=orthogonalEdgeStyle;html=1;verticalAlign=bottom;endArrow=open;endSize=8;strokeColor=#ff0000;rounded=0;" edge="1" source="e7EH0LffgvZk6olbJ7vA-33" parent="1" target="e7EH0LffgvZk6olbJ7vA-38">
          <mxGeometry relative="1" as="geometry">
            <mxPoint x="410" y="810" as="targetPoint" />
          </mxGeometry>
        </mxCell>
        <mxCell id="e7EH0LffgvZk6olbJ7vA-51" value="Передача службе доставки" style="edgeLabel;html=1;align=center;verticalAlign=middle;resizable=0;points=[];" vertex="1" connectable="0" parent="e7EH0LffgvZk6olbJ7vA-35">
          <mxGeometry x="-0.2377" y="-2" relative="1" as="geometry">
            <mxPoint x="-78" as="offset" />
          </mxGeometry>
        </mxCell>
        <mxCell id="e7EH0LffgvZk6olbJ7vA-38" value="Доставлен" style="swimlane;fontStyle=1;align=center;verticalAlign=middle;childLayout=stackLayout;horizontal=1;startSize=30;horizontalStack=0;resizeParent=0;resizeLast=1;container=0;fontColor=#000000;collapsible=0;rounded=1;arcSize=30;strokeColor=#ff0000;fillColor=#ffffc0;swimlaneFillColor=#ffffc0;dropTarget=0;" vertex="1" parent="1">
          <mxGeometry x="170" y="700" width="160" height="60" as="geometry" />
        </mxCell>
        <mxCell id="e7EH0LffgvZk6olbJ7vA-39" value="&lt;div&gt;&lt;span style=&quot;background-color: initial;&quot;&gt;exit: передать клиенту&lt;/span&gt;&lt;br&gt;&lt;/div&gt;" style="text;html=1;strokeColor=none;fillColor=none;align=center;verticalAlign=middle;spacingLeft=4;spacingRight=4;whiteSpace=wrap;overflow=hidden;rotatable=0;fontColor=#000000;" vertex="1" parent="e7EH0LffgvZk6olbJ7vA-38">
          <mxGeometry y="30" width="160" height="30" as="geometry" />
        </mxCell>
        <mxCell id="e7EH0LffgvZk6olbJ7vA-40" value="" style="edgeStyle=orthogonalEdgeStyle;html=1;verticalAlign=bottom;endArrow=open;endSize=8;strokeColor=#ff0000;rounded=0;entryX=0.5;entryY=0;entryDx=0;entryDy=0;" edge="1" source="e7EH0LffgvZk6olbJ7vA-38" parent="1" target="e7EH0LffgvZk6olbJ7vA-3">
          <mxGeometry relative="1" as="geometry">
            <mxPoint x="610" y="930" as="targetPoint" />
            <Array as="points">
              <mxPoint x="260" y="780" />
              <mxPoint x="415" y="780" />
            </Array>
          </mxGeometry>
        </mxCell>
        <mxCell id="e7EH0LffgvZk6olbJ7vA-42" value="" style="edgeStyle=orthogonalEdgeStyle;html=1;verticalAlign=bottom;endArrow=open;endSize=8;strokeColor=#ff0000;rounded=0;entryX=0.5;entryY=0;entryDx=0;entryDy=0;exitX=0;exitY=0;exitDx=0;exitDy=0;" edge="1" parent="1" source="e7EH0LffgvZk6olbJ7vA-31" target="e7EH0LffgvZk6olbJ7vA-26">
          <mxGeometry relative="1" as="geometry">
            <mxPoint x="520" y="520" as="targetPoint" />
            <mxPoint x="390" y="450" as="sourcePoint" />
            <Array as="points">
              <mxPoint x="380" y="480" />
              <mxPoint x="250" y="480" />
              <mxPoint x="250" y="510" />
            </Array>
          </mxGeometry>
        </mxCell>
        <mxCell id="e7EH0LffgvZk6olbJ7vA-47" value="Оплата заказа" style="edgeLabel;html=1;align=center;verticalAlign=middle;resizable=0;points=[];" vertex="1" connectable="0" parent="e7EH0LffgvZk6olbJ7vA-42">
          <mxGeometry x="-0.5822" y="2" relative="1" as="geometry">
            <mxPoint y="-22" as="offset" />
          </mxGeometry>
        </mxCell>
      </root>
    </mxGraphModel>
  </diagram>
</mxfile>
